<svg xmlns="http://www.w3.org/2000/svg" width="24" height="24" viewBox="0 0 24 24" fill="none">
  <path d="M21.0004 4.9999L3.0004 4.9999C2.81816 5.00047 2.63953 5.05073 2.48373 5.14527C2.32793 5.23982 2.20086 5.37506 2.11621 5.53645C2.03155 5.69783 1.99252 5.87926 2.0033 6.06118C2.01408 6.2431 2.07428 6.41864 2.1774 6.5689L11.1774 19.5689C11.5504 20.1079 12.4484 20.1079 12.8224 19.5689L21.8224 6.5689C21.9266 6.41895 21.9877 6.24333 21.999 6.0611C22.0104 5.87887 21.9716 5.69702 21.8869 5.53529C21.8022 5.37356 21.6747 5.23814 21.5184 5.14375C21.3622 5.04936 21.183 4.99961 21.0004 4.9999Z" fill="#9F9F9F"/>
</svg>