<svg width="50" height="36" viewBox="0 0 50 36" fill="none" xmlns="http://www.w3.org/2000/svg">
<path d="M32 0.5C41.665 0.5 49.5 8.33502 49.5 18C49.5 27.665 41.665 35.5 32 35.5H18C8.33502 35.5 0.5 27.665 0.5 18C0.5 8.33502 8.33502 0.5 18 0.5H32Z" stroke="url(#paint0_linear_106_1329)" stroke-opacity="0.2"/>
<g clip-path="url(#clip0_106_1329)">
<path d="M18.0074 10.5297L19.0458 23.8145C19.0614 24.014 19.1964 24.1841 19.3872 24.2446L24.8514 25.977C24.9481 26.0077 25.0518 26.0077 25.1484 25.977L30.6127 24.2446C30.8035 24.1841 30.9385 24.014 30.9541 23.8145L31.9925 10.5297C32.0148 10.244 31.7891 10 31.5026 10H18.4973C18.2108 10 17.9851 10.244 18.0074 10.5297ZM29.3295 14.6515H22.5619L22.7661 16.5349H29.1823L28.7626 21.9043L25 23.0972L21.2373 21.9043L21.018 19.0991H22.993V20.4751L25.0527 21.0279L27.1002 20.4751L27.259 18.2822H20.9542L20.5356 12.9269H29.4643L29.3295 14.6515Z" fill="#FC490B"/>
</g>
<defs>
<linearGradient id="paint0_linear_106_1329" x1="5.30769" y1="1" x2="43.1786" y2="74.4813" gradientUnits="userSpaceOnUse">
<stop stop-color="#FF812A"/>
<stop offset="1" stop-color="#994D19"/>
</linearGradient>
<clipPath id="clip0_106_1329">
<rect width="16" height="16" fill="white" transform="translate(17 10)"/>
</clipPath>
</defs>
</svg>
