<svg width="121" height="41" viewBox="0 0 121 41" fill="none" xmlns="http://www.w3.org/2000/svg">
<g style="mix-blend-mode:plus-lighter">
<rect x="0.875" y="0.480042" width="119.25" height="39.25" rx="7.625" stroke="white" stroke-width="0.75"/>
<path d="M26.0188 25.105V13.905H27.9388L33.3308 22.001V13.905H35.2508V25.105H33.3308L27.9388 17.025V25.105H26.0188ZM41.1992 25.297C40.4312 25.297 39.7379 25.121 39.1192 24.769C38.5112 24.4064 38.0312 23.9104 37.6792 23.281C37.3379 22.641 37.1672 21.9104 37.1672 21.089C37.1672 20.2464 37.3432 19.5104 37.6952 18.881C38.0472 18.241 38.5272 17.745 39.1352 17.393C39.7539 17.0304 40.4472 16.849 41.2152 16.849C41.9832 16.849 42.6712 17.0304 43.2792 17.393C43.8979 17.745 44.3779 18.2357 44.7192 18.865C45.0712 19.4944 45.2472 20.2304 45.2472 21.073C45.2472 21.9157 45.0712 22.6517 44.7192 23.281C44.3672 23.9104 43.8819 24.4064 43.2632 24.769C42.6552 25.121 41.9672 25.297 41.1992 25.297ZM41.1992 23.649C41.5832 23.649 41.9299 23.553 42.2392 23.361C42.5592 23.169 42.8152 22.881 43.0072 22.497C43.1992 22.113 43.2952 21.6384 43.2952 21.073C43.2952 20.5077 43.1992 20.0384 43.0072 19.665C42.8259 19.281 42.5752 18.993 42.2552 18.801C41.9459 18.609 41.5992 18.513 41.2152 18.513C40.8419 18.513 40.4952 18.609 40.1752 18.801C39.8552 18.993 39.5992 19.281 39.4072 19.665C39.2152 20.0384 39.1192 20.5077 39.1192 21.073C39.1192 21.6384 39.2152 22.113 39.4072 22.497C39.5992 22.881 39.8499 23.169 40.1592 23.361C40.4792 23.553 40.8259 23.649 41.1992 23.649ZM50.3182 25.105C49.7742 25.105 49.2995 25.0197 48.8942 24.849C48.4995 24.6784 48.1902 24.3957 47.9662 24.001C47.7422 23.6064 47.6302 23.073 47.6302 22.401V18.657H46.2542V17.041H47.6302L47.8542 14.913H49.5502V17.041H51.7422V18.657H49.5502V22.401C49.5502 22.8064 49.6355 23.089 49.8062 23.249C49.9875 23.3984 50.2862 23.473 50.7022 23.473H51.6942V25.105H50.3182ZM57.1214 25.297C56.3214 25.297 55.6174 25.1264 55.0094 24.785C54.4014 24.433 53.9268 23.9424 53.5854 23.313C53.2441 22.6837 53.0734 21.9584 53.0734 21.137C53.0734 20.2837 53.2388 19.537 53.5694 18.897C53.9108 18.257 54.3854 17.7557 54.9934 17.393C55.6121 17.0304 56.3268 16.849 57.1374 16.849C57.9268 16.849 58.6148 17.025 59.2014 17.377C59.7881 17.729 60.2414 18.2037 60.5614 18.801C60.8814 19.3877 61.0414 20.049 61.0414 20.785C61.0414 20.8917 61.0414 21.009 61.0414 21.137C61.0414 21.265 61.0308 21.3984 61.0094 21.537H54.4494V20.305H59.1054C59.0841 19.7184 58.8868 19.2597 58.5134 18.929C58.1401 18.5877 57.6761 18.417 57.1214 18.417C56.7268 18.417 56.3641 18.5077 56.0334 18.689C55.7028 18.8704 55.4414 19.1424 55.2494 19.505C55.0574 19.857 54.9614 20.305 54.9614 20.849V21.313C54.9614 21.8144 55.0521 22.2464 55.2334 22.609C55.4254 22.9717 55.6814 23.249 56.0014 23.441C56.3321 23.6224 56.7001 23.713 57.1054 23.713C57.5534 23.713 57.9214 23.617 58.2094 23.425C58.5081 23.233 58.7268 22.977 58.8654 22.657H60.8174C60.6681 23.1584 60.4228 23.6117 60.0814 24.017C59.7401 24.4117 59.3188 24.7264 58.8174 24.961C58.3161 25.185 57.7508 25.297 57.1214 25.297ZM66.0302 25.297C65.3155 25.297 64.6915 25.185 64.1582 24.961C63.6355 24.7264 63.2195 24.4064 62.9102 24.001C62.6115 23.585 62.4355 23.1104 62.3822 22.577H64.3022C64.3555 22.801 64.4515 23.009 64.5902 23.201C64.7289 23.3824 64.9155 23.5264 65.1502 23.633C65.3955 23.7397 65.6835 23.793 66.0142 23.793C66.3342 23.793 66.5955 23.7504 66.7982 23.665C67.0009 23.569 67.1502 23.4464 67.2462 23.297C67.3422 23.1477 67.3902 22.9877 67.3902 22.817C67.3902 22.561 67.3209 22.3637 67.1822 22.225C67.0435 22.0864 66.8409 21.9797 66.5742 21.905C66.3182 21.8197 66.0089 21.7397 65.6462 21.665C65.2622 21.5904 64.8889 21.4997 64.5262 21.393C64.1742 21.2757 63.8542 21.1317 63.5662 20.961C63.2889 20.7904 63.0649 20.5717 62.8942 20.305C62.7342 20.0384 62.6542 19.713 62.6542 19.329C62.6542 18.8597 62.7769 18.4384 63.0222 18.065C63.2782 17.6917 63.6409 17.3984 64.1102 17.185C64.5902 16.961 65.1609 16.849 65.8222 16.849C66.7609 16.849 67.5075 17.0677 68.0622 17.505C68.6275 17.9317 68.9582 18.5344 69.0542 19.313H67.2302C67.1769 19.0144 67.0275 18.785 66.7822 18.625C66.5369 18.4544 66.2115 18.369 65.8062 18.369C65.3902 18.369 65.0702 18.449 64.8462 18.609C64.6329 18.7584 64.5262 18.961 64.5262 19.217C64.5262 19.377 64.5902 19.5264 64.7182 19.665C64.8569 19.793 65.0542 19.905 65.3102 20.001C65.5662 20.0864 65.8809 20.1717 66.2542 20.257C66.8515 20.3744 67.3795 20.513 67.8382 20.673C68.2969 20.833 68.6595 21.0677 68.9262 21.377C69.1929 21.6864 69.3262 22.1237 69.3262 22.689C69.3369 23.201 69.2035 23.6544 68.9262 24.049C68.6595 24.4437 68.2809 24.753 67.7902 24.977C67.2995 25.1904 66.7129 25.297 66.0302 25.297Z" fill="#F2F2F2"/>
<path d="M89.5 19.105L94.5 14.105M94.5 14.105H91.1667M94.5 14.105V17.4384M94.5 21.4384V24.7717C94.5 25.1253 94.3595 25.4645 94.1095 25.7145C93.8594 25.9646 93.5203 26.105 93.1667 26.105H83.8333C83.4797 26.105 83.1406 25.9646 82.8905 25.7145C82.6405 25.4645 82.5 25.1253 82.5 24.7717V15.4384C82.5 15.0848 82.6405 14.7456 82.8905 14.4956C83.1406 14.2455 83.4797 14.105 83.8333 14.105H87.1667" stroke="white" stroke-width="1.25" stroke-linecap="round" stroke-linejoin="round"/>
</g>
</svg>
