<svg width="96" height="36" viewBox="0 0 96 36" fill="none" xmlns="http://www.w3.org/2000/svg">
<rect x="0.5" y="0.5" width="95" height="35" rx="17.5" stroke="#3D3D3D"/>
<path d="M18.2 23V11.8H19.544L25.512 20.776V11.8H26.856V23H25.512L19.544 14.024V23H18.2ZM32.7825 23.192C32.0358 23.192 31.3638 23.0213 30.7665 22.68C30.1692 22.328 29.6998 21.8373 29.3585 21.208C29.0172 20.568 28.8465 19.8267 28.8465 18.984C28.8465 18.12 29.0172 17.3733 29.3585 16.744C29.7105 16.104 30.1852 15.6133 30.7825 15.272C31.3905 14.92 32.0678 14.744 32.8145 14.744C33.5825 14.744 34.2598 14.92 34.8465 15.272C35.4438 15.6133 35.9132 16.104 36.2545 16.744C36.6065 17.3733 36.7825 18.1147 36.7825 18.968C36.7825 19.8213 36.6065 20.568 36.2545 21.208C35.9025 21.8373 35.4278 22.328 34.8305 22.68C34.2332 23.0213 33.5505 23.192 32.7825 23.192ZM32.7985 22.04C33.2572 22.04 33.6838 21.928 34.0785 21.704C34.4732 21.4693 34.7932 21.1227 35.0385 20.664C35.2838 20.2053 35.4065 19.64 35.4065 18.968C35.4065 18.2853 35.2838 17.72 35.0385 17.272C34.8038 16.8133 34.4892 16.472 34.0945 16.248C33.7105 16.0133 33.2838 15.896 32.8145 15.896C32.3665 15.896 31.9398 16.0133 31.5345 16.248C31.1398 16.472 30.8198 16.8133 30.5745 17.272C30.3398 17.72 30.2225 18.2853 30.2225 18.968C30.2225 19.64 30.3398 20.2053 30.5745 20.664C30.8198 21.1227 31.1345 21.4693 31.5185 21.704C31.9132 21.928 32.3398 22.04 32.7985 22.04ZM41.5224 23C41.0424 23 40.6264 22.9253 40.2744 22.776C39.9224 22.6267 39.6504 22.376 39.4584 22.024C39.277 21.6613 39.1864 21.176 39.1864 20.568V16.072H37.7784V14.936H39.1864L39.3624 12.984H40.5304V14.936H42.8664V16.072H40.5304V20.568C40.5304 21.0693 40.6317 21.4107 40.8344 21.592C41.037 21.7627 41.3944 21.848 41.9064 21.848H42.7704V23H41.5224ZM47.9373 23.192C47.1799 23.192 46.5079 23.016 45.9213 22.664C45.3453 22.312 44.8919 21.8213 44.5613 21.192C44.2306 20.552 44.0653 19.8107 44.0653 18.968C44.0653 18.1147 44.2253 17.3733 44.5453 16.744C44.8759 16.1147 45.3346 15.624 45.9213 15.272C46.5186 14.92 47.2013 14.744 47.9693 14.744C48.7586 14.744 49.4253 14.92 49.9693 15.272C50.5239 15.624 50.9453 16.088 51.2333 16.664C51.5319 17.2293 51.6813 17.8533 51.6813 18.536C51.6813 18.6427 51.6813 18.7547 51.6813 18.872C51.6813 18.9893 51.6759 19.1227 51.6653 19.272H45.0733V18.232H50.3693C50.3373 17.496 50.0919 16.92 49.6333 16.504C49.1853 16.088 48.6199 15.88 47.9373 15.88C47.4786 15.88 47.0519 15.9867 46.6573 16.2C46.2733 16.4027 45.9639 16.7067 45.7293 17.112C45.4946 17.5067 45.3773 18.0027 45.3773 18.6V19.048C45.3773 19.7093 45.4946 20.264 45.7293 20.712C45.9746 21.16 46.2893 21.496 46.6733 21.72C47.0679 21.944 47.4893 22.056 47.9373 22.056C48.5026 22.056 48.9666 21.9333 49.3293 21.688C49.7026 21.432 49.9693 21.0907 50.1293 20.664H51.4573C51.3293 21.144 51.1053 21.576 50.7853 21.96C50.4653 22.344 50.0653 22.648 49.5853 22.872C49.1159 23.0853 48.5666 23.192 47.9373 23.192ZM56.535 23.192C55.863 23.192 55.2763 23.08 54.775 22.856C54.2843 22.632 53.8897 22.3227 53.591 21.928C53.303 21.5227 53.127 21.048 53.063 20.504H54.439C54.4923 20.7813 54.6043 21.0373 54.775 21.272C54.9457 21.5067 55.175 21.6987 55.463 21.848C55.7617 21.9867 56.1243 22.056 56.551 22.056C56.9243 22.056 57.2337 22.0027 57.479 21.896C57.7243 21.7787 57.9057 21.624 58.023 21.432C58.151 21.24 58.215 21.032 58.215 20.808C58.215 20.4773 58.135 20.2267 57.975 20.056C57.8257 19.8853 57.6017 19.752 57.303 19.656C57.0043 19.5493 56.6417 19.4587 56.215 19.384C55.863 19.32 55.5163 19.2347 55.175 19.128C54.8337 19.0213 54.5297 18.8827 54.263 18.712C53.9963 18.5307 53.783 18.312 53.623 18.056C53.4737 17.8 53.399 17.4853 53.399 17.112C53.399 16.6533 53.5163 16.248 53.751 15.896C53.9857 15.5333 54.3217 15.2507 54.759 15.048C55.207 14.8453 55.7243 14.744 56.311 14.744C57.175 14.744 57.8737 14.952 58.407 15.368C58.9403 15.784 59.255 16.3867 59.351 17.176H58.023C57.9697 16.7707 57.7937 16.456 57.495 16.232C57.207 15.9973 56.807 15.88 56.295 15.88C55.7937 15.88 55.4097 15.9813 55.143 16.184C54.887 16.3867 54.759 16.6533 54.759 16.984C54.759 17.1973 54.8283 17.3893 54.967 17.56C55.1163 17.72 55.3297 17.8587 55.607 17.976C55.895 18.0933 56.247 18.1893 56.663 18.264C57.1963 18.36 57.6817 18.488 58.119 18.648C58.5563 18.808 58.9083 19.048 59.175 19.368C59.4523 19.6773 59.591 20.12 59.591 20.696C59.591 21.1973 59.463 21.6347 59.207 22.008C58.9617 22.3813 58.6097 22.6747 58.151 22.888C57.6923 23.0907 57.1537 23.192 56.535 23.192Z" fill="white"/>
<path d="M73.75 17.25L77.5 13.5M77.5 13.5H75M77.5 13.5V16M77.5 19V21.5C77.5 21.7652 77.3946 22.0196 77.2071 22.2071C77.0196 22.3946 76.7652 22.5 76.5 22.5H69.5C69.2348 22.5 68.9804 22.3946 68.7929 22.2071C68.6054 22.0196 68.5 21.7652 68.5 21.5V14.5C68.5 14.2348 68.6054 13.9804 68.7929 13.7929C68.9804 13.6054 69.2348 13.5 69.5 13.5H72" stroke="white" stroke-linecap="round" stroke-linejoin="round"/>
</svg>
