<svg width="156" height="156" viewBox="0 0 156 156" fill="none" xmlns="http://www.w3.org/2000/svg">
<g id="URL QR Code 1" clip-path="url(#clip0_314_1227)">
<path id="qr dark pixels" fill-rule="evenodd" clip-rule="evenodd" d="M51.9996 5.77783H75.1107V11.5556H86.6662V5.77783H92.444V23.1112H86.6662V28.8889H92.444V46.2223H86.6662V40.4445H80.8885V34.6667H75.1107V40.4445H69.3329V34.6667H63.5551V23.1112H69.3329V11.5556H51.9996V5.77783ZM75.1107 17.3334H80.8885V28.8889H75.1107V17.3334ZM57.7773 17.3334H63.5551V23.1112H57.7773V17.3334ZM92.444 23.1112H104V28.8889H92.444V23.1112ZM57.7773 34.6667H63.5551V40.4445H57.7773V34.6667ZM51.9996 40.4445H57.7773V46.2223H63.5551V57.7778H57.7773V52.0001H51.9996V40.4445ZM63.5551 40.4445H69.3329V46.2223H63.5551V40.4445ZM75.1107 40.4445H80.8885V46.2223H86.6662V52.0001H80.8885V57.7778H75.1107V40.4445ZM98.2218 40.4445H104V46.2223H98.2218V40.4445ZM92.444 46.2223H98.2218V63.5556H104V57.7778H109.777V63.5556H115.555V57.7778H144.444V63.5556H132.888V69.3334H144.444V63.5556H150.222V80.8889H144.444V75.1112H127.111V69.3334H109.777V75.1112H115.555V80.8889H104V86.6667H109.777V92.4445H121.333V98.2223H127.111V127.111H115.555V132.889H109.777V138.667H121.333V132.889H138.666V127.111H150.222V150.222H144.444V144.444H132.888V138.667H127.111V144.444H104V138.667H98.2218V132.889H104V127.111H98.2218V132.889H92.444V127.111H86.6662V132.889H80.8885V127.111H75.1107V121.333H69.3329V109.778H75.1107V115.556H80.8885V109.778H86.6662V104H92.444V115.556H86.6662V121.333H92.444V115.556H98.2218V104H92.444V98.2223H104V92.4445H86.6662V86.6667H92.444V75.1112H104V69.3334H92.444V63.5556H86.6662V69.3334H75.1107V63.5556H80.8885V57.7778H92.444V46.2223ZM104 104H121.333V121.333H104V104ZM5.77734 52.0001H17.3329V57.7778H5.77734V52.0001ZM23.1107 52.0001H34.6662V57.7778H28.8885V63.5556H23.1107V80.8889H17.3329V86.6667H28.8885V104H23.1107V98.2223H17.3329V92.4445H11.5551V104H5.77734V75.1112H11.5551V69.3334H17.3329V57.7778H23.1107V52.0001ZM40.444 52.0001H46.2218V57.7778H40.444V52.0001ZM109.777 52.0001H115.555V57.7778H109.777V52.0001ZM144.444 52.0001H150.222V57.7778H144.444V52.0001ZM34.6662 57.7778H40.444V63.5556H34.6662V57.7778ZM46.2218 57.7778H57.7773V63.5556H46.2218V57.7778ZM63.5551 57.7778H69.3329V63.5556H63.5551V57.7778ZM40.444 63.5556H46.2218V69.3334H40.444V63.5556ZM57.7773 63.5556H63.5551V69.3334H57.7773V63.5556ZM86.6662 69.3334H92.444V75.1112H86.6662V69.3334ZM40.444 75.1112H69.3329V86.6667H63.5551V80.8889H57.7773V86.6667H51.9996V80.8889H40.444V75.1112ZM75.1107 75.1112H80.8885V80.8889H86.6662V86.6667H75.1107V75.1112ZM34.6662 80.8889H40.444V86.6667H46.2218V92.4445H40.444V98.2223H57.7773V104H63.5551V109.778H51.9996V104H34.6662V80.8889ZM121.333 80.8889H127.111V86.6667H138.666V80.8889H144.444V86.6667H150.222V98.2223H144.444V92.4445H138.666V98.2223H144.444V109.778H132.888V98.2223H127.111V92.4445H121.333V80.8889ZM57.7773 86.6667H63.5551V98.2223H57.7773V86.6667ZM75.1107 92.4445H80.8885V98.2223H75.1107V92.4445ZM63.5551 98.2223H75.1107V104H63.5551V98.2223ZM109.777 109.778H115.555V115.556H109.777V109.778ZM144.444 109.778H150.222V115.556H144.444V109.778ZM57.7773 115.556H63.5551V121.333H69.3329V127.111H57.7773V132.889H51.9996V121.333H57.7773V115.556ZM57.7773 132.889H80.8885V138.667H69.3329V144.444H63.5551V138.667H57.7773V132.889ZM86.6662 132.889H92.444V150.222H86.6662V132.889ZM51.9996 138.667H57.7773V144.444H63.5551V150.222H51.9996V138.667ZM69.3329 144.444H75.1107V150.222H69.3329V144.444ZM98.2218 144.444H104V150.222H98.2218V144.444ZM127.111 144.444H132.888V150.222H127.111V144.444Z" fill="white"/>
<path id="qr squares" fill-rule="evenodd" clip-rule="evenodd" d="M5.77734 5.77783H46.2218V46.2223H5.77734V5.77783ZM11.5551 11.5556H40.444V40.4445H11.5551V11.5556ZM17.3329 17.3334H34.6662V34.6667H17.3329V17.3334ZM109.777 5.77783H150.222V46.2223H109.777V5.77783ZM115.555 11.5556H144.444V40.4445H115.555V11.5556ZM121.333 17.3334H138.666V34.6667H121.333V17.3334ZM5.77734 109.778H46.2218V150.222H5.77734V109.778ZM11.5551 115.556H40.444V144.444H11.5551V115.556ZM17.3329 121.333H34.6662V138.667H17.3329V121.333Z" fill="white"/>
</g>
<defs>
<clipPath id="clip0_314_1227">
<rect width="156" height="156" fill="white"/>
</clipPath>
</defs>
</svg>
