<svg width="162" height="41" viewBox="0 0 162 41" fill="none" xmlns="http://www.w3.org/2000/svg">
<g style="mix-blend-mode:plus-lighter">
<rect x="0.375" y="0.5" width="161.25" height="39.25" rx="7.625" stroke="white" stroke-width="0.75"/>
<path d="M33.2766 25.125V13.925H37.2926C38.178 13.925 38.9086 14.0797 39.4846 14.389C40.0713 14.6877 40.5033 15.093 40.7806 15.605C41.0686 16.1063 41.2126 16.677 41.2126 17.317C41.2126 17.9143 41.074 18.469 40.7966 18.981C40.5193 19.493 40.0873 19.9037 39.5006 20.213C38.914 20.5223 38.162 20.677 37.2446 20.677H35.1966V25.125H33.2766ZM39.1166 25.125L36.7646 20.181H38.8446L41.3086 25.125H39.1166ZM35.1966 19.253H37.1646C37.8793 19.253 38.402 19.0823 38.7326 18.741C39.074 18.389 39.2446 17.9303 39.2446 17.365C39.2446 16.8103 39.0793 16.3677 38.7486 16.037C38.418 15.6957 37.89 15.525 37.1646 15.525H35.1966V19.253ZM46.1265 25.317C45.4758 25.317 44.9158 25.189 44.4465 24.933C43.9878 24.6663 43.6358 24.2717 43.3905 23.749C43.1452 23.2157 43.0225 22.5597 43.0225 21.781V17.061H44.9425V21.589C44.9425 22.2823 45.0865 22.8103 45.3745 23.173C45.6732 23.525 46.1212 23.701 46.7185 23.701C47.1025 23.701 47.4438 23.6103 47.7425 23.429C48.0518 23.2477 48.2918 22.9863 48.4625 22.645C48.6438 22.293 48.7345 21.8663 48.7345 21.365V17.061H50.6545V25.125H48.9585L48.8145 23.781C48.5692 24.2503 48.2118 24.6237 47.7425 24.901C47.2838 25.1783 46.7452 25.317 46.1265 25.317ZM52.7908 25.125V13.605H54.7108V25.125H52.7908ZM60.6293 25.317C59.8293 25.317 59.1253 25.1463 58.5173 24.805C57.9093 24.453 57.4346 23.9623 57.0933 23.333C56.7519 22.7037 56.5813 21.9783 56.5813 21.157C56.5813 20.3037 56.7466 19.557 57.0773 18.917C57.4186 18.277 57.8933 17.7757 58.5013 17.413C59.1199 17.0503 59.8346 16.869 60.6453 16.869C61.4346 16.869 62.1226 17.045 62.7093 17.397C63.2959 17.749 63.7493 18.2237 64.0693 18.821C64.3893 19.4077 64.5493 20.069 64.5493 20.805C64.5493 20.9117 64.5493 21.029 64.5493 21.157C64.5493 21.285 64.5386 21.4183 64.5173 21.557H57.9573V20.325H62.6133C62.5919 19.7383 62.3946 19.2797 62.0213 18.949C61.6479 18.6077 61.1839 18.437 60.6293 18.437C60.2346 18.437 59.8719 18.5277 59.5413 18.709C59.2106 18.8903 58.9493 19.1623 58.7573 19.525C58.5653 19.877 58.4693 20.325 58.4693 20.869V21.333C58.4693 21.8343 58.5599 22.2663 58.7413 22.629C58.9333 22.9917 59.1893 23.269 59.5093 23.461C59.8399 23.6423 60.2079 23.733 60.6133 23.733C61.0613 23.733 61.4293 23.637 61.7173 23.445C62.0159 23.253 62.2346 22.997 62.3733 22.677H64.3253C64.1759 23.1783 63.9306 23.6317 63.5893 24.037C63.2479 24.4317 62.8266 24.7463 62.3253 24.981C61.8239 25.205 61.2586 25.317 60.6293 25.317ZM70.93 25.317C70.5033 25.317 70.1193 25.2583 69.778 25.141C69.4367 25.0343 69.138 24.885 68.882 24.693C68.626 24.4903 68.4127 24.261 68.242 24.005L68.034 25.125H66.322V13.605H68.242V18.245C68.498 17.8503 68.8447 17.525 69.282 17.269C69.7193 17.0023 70.2633 16.869 70.914 16.869C71.6713 16.869 72.338 17.0557 72.914 17.429C73.5007 17.7917 73.9593 18.293 74.29 18.933C74.6313 19.5623 74.802 20.2877 74.802 21.109C74.802 21.909 74.6367 22.629 74.306 23.269C73.9753 23.909 73.5167 24.4103 72.93 24.773C72.354 25.1357 71.6873 25.317 70.93 25.317ZM70.53 23.653C70.978 23.653 71.378 23.5463 71.73 23.333C72.082 23.109 72.354 22.8103 72.546 22.437C72.7487 22.053 72.85 21.605 72.85 21.093C72.85 20.5917 72.7487 20.149 72.546 19.765C72.354 19.381 72.082 19.0823 71.73 18.869C71.378 18.6557 70.978 18.549 70.53 18.549C70.0713 18.549 69.666 18.6557 69.314 18.869C68.9727 19.0823 68.7007 19.381 68.498 19.765C68.306 20.149 68.21 20.5917 68.21 21.093C68.21 21.605 68.306 22.053 68.498 22.437C68.7007 22.8103 68.9727 23.109 69.314 23.333C69.666 23.5463 70.0713 23.653 70.53 23.653ZM80.4258 25.317C79.6578 25.317 78.9644 25.141 78.3458 24.789C77.7378 24.4263 77.2578 23.9303 76.9058 23.301C76.5644 22.661 76.3938 21.9303 76.3938 21.109C76.3938 20.2663 76.5698 19.5303 76.9218 18.901C77.2738 18.261 77.7538 17.765 78.3618 17.413C78.9804 17.0503 79.6738 16.869 80.4418 16.869C81.2098 16.869 81.8978 17.0503 82.5058 17.413C83.1244 17.765 83.6044 18.2557 83.9458 18.885C84.2978 19.5143 84.4738 20.2503 84.4738 21.093C84.4738 21.9357 84.2978 22.6717 83.9458 23.301C83.5938 23.9303 83.1084 24.4263 82.4898 24.789C81.8818 25.141 81.1938 25.317 80.4258 25.317ZM80.4258 23.669C80.8098 23.669 81.1564 23.573 81.4658 23.381C81.7858 23.189 82.0418 22.901 82.2338 22.517C82.4258 22.133 82.5218 21.6583 82.5218 21.093C82.5218 20.5277 82.4258 20.0583 82.2338 19.685C82.0524 19.301 81.8018 19.013 81.4818 18.821C81.1724 18.629 80.8258 18.533 80.4418 18.533C80.0684 18.533 79.7218 18.629 79.4018 18.821C79.0818 19.013 78.8258 19.301 78.6338 19.685C78.4418 20.0583 78.3458 20.5277 78.3458 21.093C78.3458 21.6583 78.4418 22.133 78.6338 22.517C78.8258 22.901 79.0764 23.189 79.3858 23.381C79.7058 23.573 80.0524 23.669 80.4258 23.669ZM90.1133 25.317C89.3453 25.317 88.6519 25.141 88.0333 24.789C87.4253 24.4263 86.9453 23.9303 86.5933 23.301C86.2519 22.661 86.0813 21.9303 86.0813 21.109C86.0813 20.2663 86.2573 19.5303 86.6093 18.901C86.9613 18.261 87.4413 17.765 88.0493 17.413C88.6679 17.0503 89.3613 16.869 90.1293 16.869C90.8973 16.869 91.5853 17.0503 92.1933 17.413C92.8119 17.765 93.2919 18.2557 93.6333 18.885C93.9853 19.5143 94.1613 20.2503 94.1613 21.093C94.1613 21.9357 93.9853 22.6717 93.6333 23.301C93.2813 23.9303 92.7959 24.4263 92.1773 24.789C91.5693 25.141 90.8813 25.317 90.1133 25.317ZM90.1133 23.669C90.4973 23.669 90.8439 23.573 91.1533 23.381C91.4733 23.189 91.7293 22.901 91.9213 22.517C92.1133 22.133 92.2093 21.6583 92.2093 21.093C92.2093 20.5277 92.1133 20.0583 91.9213 19.685C91.7399 19.301 91.4893 19.013 91.1693 18.821C90.8599 18.629 90.5133 18.533 90.1293 18.533C89.7559 18.533 89.4093 18.629 89.0893 18.821C88.7693 19.013 88.5133 19.301 88.3213 19.685C88.1293 20.0583 88.0333 20.5277 88.0333 21.093C88.0333 21.6583 88.1293 22.133 88.3213 22.517C88.5133 22.901 88.7639 23.189 89.0733 23.381C89.3933 23.573 89.7399 23.669 90.1133 23.669ZM101.241 25.125L97.6728 20.709L100.873 17.061H103.161L99.1768 21.493V20.005L103.641 25.125H101.241ZM96.0408 25.125V13.605H97.9608V25.125H96.0408Z" fill="#F2F2F2"/>
<path d="M123 19.125L128 14.125M128 14.125H124.667M128 14.125V17.4583M128 21.4583V24.7917C128 25.1453 127.86 25.4844 127.609 25.7345C127.359 25.9845 127.02 26.125 126.667 26.125H117.333C116.98 26.125 116.641 25.9845 116.391 25.7345C116.14 25.4844 116 25.1453 116 24.7917V15.4583C116 15.1047 116.14 14.7656 116.391 14.5155C116.641 14.2655 116.98 14.125 117.333 14.125H120.667" stroke="white" stroke-width="1.25" stroke-linecap="round" stroke-linejoin="round"/>
</g>
</svg>
