<svg width="82" height="36" viewBox="0 0 82 36" fill="none" xmlns="http://www.w3.org/2000/svg">
<path d="M64 0.5C73.665 0.5 81.5 8.33502 81.5 18C81.5 27.665 73.665 35.5 64 35.5H18C8.33502 35.5 0.5 27.665 0.5 18C0.5 8.33502 8.33502 0.5 18 0.5H64Z" stroke="url(#paint0_linear_106_1303)" stroke-opacity="0.2"/>
<mask id="mask0_106_1303" style="mask-type:alpha" maskUnits="userSpaceOnUse" x="17" y="10" width="16" height="16">
<path fill-rule="evenodd" clip-rule="evenodd" d="M28.3459 25.8905C28.4732 25.9402 28.6094 25.9631 28.746 25.9578C28.8825 25.9526 29.0165 25.9193 29.1397 25.86L32.4338 24.2749C32.6034 24.1932 32.7466 24.0653 32.8468 23.9059C32.9469 23.7465 33.0001 23.562 33 23.3738V12.6259C33.0001 12.4376 32.947 12.2531 32.8468 12.0937C32.7466 11.9342 32.6035 11.8063 32.4338 11.7246L29.1397 10.1398C28.9535 10.0502 28.7442 10.0207 28.5405 10.0554C28.3369 10.0901 28.1491 10.1872 28.003 10.3333L21.6968 16.0865L18.95 14.0014C18.8261 13.9074 18.6732 13.8597 18.5178 13.8666C18.3624 13.8735 18.2143 13.9345 18.0992 14.0391L17.2182 14.8405C17.1495 14.903 17.0946 14.9791 17.0571 15.0639C17.0195 15.1488 17.0001 15.2406 17 15.3334C16.9999 15.4262 17.0192 15.518 17.0567 15.6029C17.0941 15.6878 17.1489 15.764 17.2174 15.8265L19.5995 17.9998L17.2175 20.1731C17.149 20.2357 17.0943 20.3119 17.0569 20.3968C17.0195 20.4817 17.0002 20.5735 17.0003 20.6663C17.0003 20.759 17.0198 20.8508 17.0573 20.9356C17.0948 21.0205 17.1497 21.0966 17.2183 21.159L18.0993 21.9604C18.2144 22.0651 18.3625 22.1261 18.5179 22.1331C18.6733 22.14 18.8262 22.0923 18.9502 21.9983L21.6969 19.9133L28.0032 25.6664C28.1008 25.764 28.2174 25.8403 28.3459 25.8905ZM29.0024 14.3676L24.2175 17.9998L29.0025 21.632L29.0024 14.3676Z" fill="white"/>
</mask>
<g mask="url(#mask0_106_1303)">
<path d="M32.4338 11.7272L29.1371 10.1397C28.9509 10.05 28.7414 10.0205 28.5377 10.0551C28.3339 10.0898 28.146 10.187 28 10.3332L17.2077 20.1731C17.1391 20.2356 17.0844 20.3118 17.0469 20.3967C17.0095 20.4816 16.9902 20.5734 16.9902 20.6662C16.9903 20.759 17.0098 20.8507 17.0473 20.9356C17.0849 21.0204 17.1398 21.0965 17.2085 21.1589L18.09 21.9603C18.2051 22.0651 18.3533 22.1263 18.5088 22.1332C18.6643 22.1401 18.8174 22.0923 18.9413 21.9982L31.9377 12.1388C32.3737 11.8081 33 12.1191 33 12.6663V12.6281C33 12.4398 32.9468 12.2554 32.8467 12.096C32.7465 11.9366 32.6034 11.8089 32.4338 11.7272Z" fill="#0065A9"/>
<g filter="url(#filter0_d_106_1303)">
<path d="M32.4338 24.2722L29.1371 25.8595C28.9509 25.9492 28.7414 25.9788 28.5377 25.9442C28.334 25.9095 28.146 25.8124 28 25.6662L17.2077 15.8262C17.1391 15.7637 17.0844 15.6876 17.0469 15.6027C17.0095 15.5177 16.9902 15.4259 16.9902 15.3331C16.9903 15.2403 17.0098 15.1486 17.0473 15.0637C17.0849 14.9789 17.1398 14.9028 17.2085 14.8404L18.09 14.039C18.2051 13.9342 18.3533 13.8731 18.5088 13.8661C18.6643 13.8592 18.8174 13.907 18.9413 14.0011L31.9377 23.8604C32.3737 24.1912 33 23.8802 33 23.333V23.3712C33 23.5595 32.9468 23.7439 32.8467 23.9033C32.7465 24.0627 32.6034 24.1906 32.4338 24.2722Z" fill="#007ACC"/>
</g>
<g filter="url(#filter1_d_106_1303)">
<path d="M29.1372 25.8599C28.951 25.9494 28.7415 25.9789 28.5378 25.9442C28.3341 25.9095 28.1462 25.8124 28 25.6663C28.369 26.0353 29 25.7739 29 25.2521V10.7472C29 10.2253 28.369 9.96393 28 10.3331C28.1462 10.187 28.3341 10.0899 28.5378 10.0552C28.7415 10.0205 28.951 10.0499 29.1372 10.1394L32.4334 11.7247C32.6031 11.8063 32.7463 11.9342 32.8466 12.0936C32.9468 12.2531 33 12.4376 33 12.6259V23.3737C33 23.562 32.9468 23.7465 32.8466 23.906C32.7463 24.0654 32.6031 24.1933 32.4334 24.2749L29.1372 25.8599Z" fill="#1F9CF0"/>
</g>
<path opacity="0.25" fill-rule="evenodd" clip-rule="evenodd" d="M28.3362 25.8905C28.4635 25.9401 28.5997 25.963 28.7362 25.9578C28.8727 25.9525 29.0067 25.9193 29.1298 25.86L32.424 24.2749C32.5936 24.1932 32.7368 24.0653 32.837 23.9059C32.9371 23.7464 32.9903 23.5619 32.9902 23.3736V12.6259C32.9903 12.4376 32.9371 12.2531 32.837 12.0937C32.7368 11.9342 32.5936 11.8063 32.424 11.7246L29.1298 10.1398C28.9437 10.0502 28.7343 10.0207 28.5307 10.0554C28.3271 10.0901 28.1392 10.1872 27.9932 10.3333L21.687 16.0865L18.9402 14.0015C18.8163 13.9075 18.6634 13.8598 18.508 13.8667C18.3526 13.8736 18.2045 13.9346 18.0893 14.0393L17.2083 14.8406C17.1397 14.9031 17.0849 14.9792 17.0473 15.0641C17.0097 15.1489 16.9903 15.2407 16.9902 15.3335C16.9902 15.4263 17.0095 15.5181 17.0469 15.603C17.0843 15.6879 17.139 15.7641 17.2076 15.8266L19.5897 17.9998L17.2077 20.173C17.1392 20.2356 17.0844 20.3117 17.047 20.3967C17.0095 20.4816 16.9902 20.5734 16.9903 20.6662C16.9904 20.759 17.0098 20.8508 17.0474 20.9356C17.0849 21.0205 17.1398 21.0966 17.2085 21.159L18.0895 21.9604C18.2046 22.0651 18.3527 22.1261 18.5081 22.1331C18.6635 22.14 18.8164 22.0923 18.9403 21.9983L21.6872 19.9131L27.9935 25.6664C28.091 25.764 28.2077 25.8403 28.3362 25.8905ZM28.9927 14.3675L24.2077 17.9998L28.9927 21.6319V14.3675Z" fill="url(#paint1_linear_106_1303)"/>
</g>
<g clip-path="url(#clip0_106_1303)">
<path d="M50.0074 10.5297L51.0458 23.8145C51.0614 24.014 51.1964 24.1841 51.3872 24.2446L56.8514 25.977C56.9481 26.0077 57.0518 26.0077 57.1484 25.977L62.6127 24.2446C62.8035 24.1841 62.9385 24.014 62.9541 23.8145L63.9925 10.5297C64.0148 10.244 63.7891 10 63.5026 10H50.4973C50.2108 10 49.9851 10.244 50.0074 10.5297ZM61.3295 14.6515H54.5619L54.7661 16.5349H61.1823L60.7626 21.9043L57 23.0972L53.2373 21.9043L53.018 19.0991H54.993V20.4751L57.0527 21.0279L59.1002 20.4751L59.259 18.2822H52.9542L52.5356 12.9269H61.4643L61.3295 14.6515Z" fill="#FC490B"/>
</g>
<defs>
<filter id="filter0_d_106_1303" x="8.65623" y="5.53148" width="32.6778" height="28.7608" filterUnits="userSpaceOnUse" color-interpolation-filters="sRGB">
<feFlood flood-opacity="0" result="BackgroundImageFix"/>
<feColorMatrix in="SourceAlpha" type="matrix" values="0 0 0 0 0 0 0 0 0 0 0 0 0 0 0 0 0 0 127 0" result="hardAlpha"/>
<feOffset/>
<feGaussianBlur stdDeviation="4.167"/>
<feColorMatrix type="matrix" values="0 0 0 0 0 0 0 0 0 0 0 0 0 0 0 0 0 0 0.25 0"/>
<feBlend mode="overlay" in2="BackgroundImageFix" result="effect1_dropShadow_106_1303"/>
<feBlend mode="normal" in="SourceGraphic" in2="effect1_dropShadow_106_1303" result="shape"/>
</filter>
<filter id="filter1_d_106_1303" x="19.666" y="1.70702" width="21.668" height="32.5852" filterUnits="userSpaceOnUse" color-interpolation-filters="sRGB">
<feFlood flood-opacity="0" result="BackgroundImageFix"/>
<feColorMatrix in="SourceAlpha" type="matrix" values="0 0 0 0 0 0 0 0 0 0 0 0 0 0 0 0 0 0 127 0" result="hardAlpha"/>
<feOffset/>
<feGaussianBlur stdDeviation="4.167"/>
<feColorMatrix type="matrix" values="0 0 0 0 0 0 0 0 0 0 0 0 0 0 0 0 0 0 0.25 0"/>
<feBlend mode="overlay" in2="BackgroundImageFix" result="effect1_dropShadow_106_1303"/>
<feBlend mode="normal" in="SourceGraphic" in2="effect1_dropShadow_106_1303" result="shape"/>
</filter>
<linearGradient id="paint0_linear_106_1303" x1="8.17949" y1="1" x2="34.4277" y2="85.8826" gradientUnits="userSpaceOnUse">
<stop stop-color="#FF812A"/>
<stop offset="1" stop-color="#994D19"/>
</linearGradient>
<linearGradient id="paint1_linear_106_1303" x1="24.9902" y1="10.041" x2="24.9902" y2="25.9585" gradientUnits="userSpaceOnUse">
<stop stop-color="white"/>
<stop offset="1" stop-color="white" stop-opacity="0"/>
</linearGradient>
<clipPath id="clip0_106_1303">
<rect width="16" height="16" fill="white" transform="translate(49 10)"/>
</clipPath>
</defs>
</svg>
